<svg xmlns="http://www.w3.org/2000/svg" version="1.0" preserveAspectRatio="xMidYMid meet" viewBox="274 274.11 476.3 475.64">

<g transform="translate(0.000000,1024.000000) scale(0.100000,-0.100000)" fill="#000000" stroke="none">
<path d="M6171 7484 c-81 -22 -147 -62 -206 -125 -57 -63 -89 -120 -111 -202 -73 -275 148 -557 436 -557 269 1 486 253 442 516 -22 134 -113 269 -220 327 -101 55 -231 71 -341 41z m200 -199 c62 -22 101 -56 134 -116 99 -182 -52 -396 -259 -365 -132 20 -230 171 -197 303 37 146 183 227 322 178z"/>
<path d="M4855 6845 c-548 -86 -998 -459 -1174 -971 -17 -50 -31 -106 -31 -123 0 -72 57 -144 125 -157 67 -12 94 2 215 120 182 178 277 247 444 326 118 56 215 85 341 100 107 14 254 5 262 -15 8 -22 -76 -173 -154 -275 -39 -52 -129 -158 -199 -235 -138 -152 -230 -282 -264 -373 -109 -286 -21 -578 224 -744 138 -95 287 -140 671 -203 162 -27 297 -57 348 -77 l28 -11 -39 -41 c-166 -176 -328 -439 -396 -646 -80 -244 -80 -491 0 -628 47 -80 142 -128 202 -103 17 7 55 48 93 99 161 219 322 411 610 732 183 204 233 265 281 340 106 167 132 372 68 543 -75 200 -284 368 -620 500 -105 41 -346 117 -373 117 -7 0 -19 4 -27 10 -11 7 36 59 212 238 223 227 302 322 360 436 34 67 68 191 68 248 0 21 3 38 6 38 3 0 49 -36 102 -81 168 -139 294 -184 452 -161 133 19 307 111 459 242 40 34 75 60 78 57 5 -6 -61 -124 -117 -207 -126 -185 -335 -339 -513 -377 -120 -25 -255 -5 -379 58 -32 16 -60 29 -62 29 -3 0 -19 -21 -37 -47 -18 -27 -44 -61 -58 -76 -26 -28 -26 -29 -6 -43 41 -31 165 -85 241 -105 113 -31 281 -31 387 -1 309 88 604 377 756 743 59 141 73 202 59 256 -20 81 -102 134 -184 118 -31 -5 -54 -23 -114 -85 -215 -224 -443 -370 -579 -370 -110 0 -183 50 -485 334 -247 233 -305 278 -451 351 -190 94 -379 136 -615 134 -74 -1 -171 -7 -215 -14z m514 -215 c179 -47 351 -139 444 -235 25 -27 61 -78 79 -114 32 -62 33 -69 33 -180 0 -113 -1 -118 -36 -191 -57 -119 -116 -188 -404 -474 -148 -148 -278 -281 -287 -295 -28 -41 -23 -97 10 -130 22 -23 55 -34 182 -65 504 -122 822 -290 917 -484 25 -51 28 -67 28 -163 0 -101 -1 -108 -37 -180 -41 -82 -116 -175 -358 -444 -175 -194 -314 -358 -442 -522 -45 -57 -84 -103 -89 -103 -4 0 -10 33 -14 73 -13 137 33 322 126 509 77 154 154 260 345 475 69 79 74 152 12 214 -72 71 -206 113 -558 174 -274 47 -378 74 -485 124 -98 46 -187 127 -222 202 -28 60 -46 162 -38 219 20 143 83 250 267 451 200 220 279 327 354 482 24 51 47 113 50 139 13 93 -47 184 -136 208 -72 19 -213 32 -290 25 -305 -25 -561 -133 -812 -342 -43 -36 -78 -61 -78 -56 0 18 90 165 138 225 189 235 451 400 737 462 39 8 81 17 95 20 14 2 106 3 205 1 148 -2 195 -7 264 -25z"/>
<path d="M4192 4746 c-101 -197 -264 -399 -390 -483 -31 -20 -131 -76 -223 -124 -244 -127 -362 -211 -500 -356 -222 -233 -339 -528 -339 -858 0 -108 2 -125 20 -148 40 -51 136 -44 164 12 8 16 16 81 19 166 12 294 108 515 310 718 110 110 211 179 418 288 220 115 294 164 389 258 88 88 150 168 226 288 l54 85 -27 46 c-15 26 -39 79 -53 119 l-25 72 -43 -83z"/>
<path d="M4639 4206 c-184 -238 -372 -373 -754 -541 -270 -119 -430 -209 -592 -334 -147 -114 -158 -126 -176 -206 -9 -38 -19 -110 -23 -160 l-7 -90 124 120 c225 219 386 323 749 485 119 53 254 117 301 143 189 103 372 257 511 431 100 126 125 165 106 170 -7 2 -50 17 -95 33 l-82 30 -62 -81z"/>
</g>
</svg>